<?xml version="1.0" standalone="no"?>
<!DOCTYPE svg PUBLIC "-//W3C//DTD SVG 20010904//EN"
 "https://www.w3.org/TR/2001/REC-SVG-20010904/DTD/svg10.dtd">
<svg version="1.0" xmlns="https://www.w3.org/2000/svg"
 width="260.000000pt" height="260.000000pt" viewBox="0 0 260.000000 260.000000"
 preserveAspectRatio="xMidYMid meet">
<metadata>
Created by potrace 1.14, written by Peter Selinger 2001-2017
</metadata>
<g transform="translate(0.000000,260.000000) scale(0.100000,-0.100000)"
fill="#000000" stroke="none">
<path d="M928 1936 c-100 -44 -100 -163 -1 -226 24 -15 60 -31 79 -35 35 -6
36 -7 29 -43 -4 -20 -10 -41 -15 -47 -4 -5 -11 -21 -15 -35 -12 -41 -109 -180
-176 -254 -52 -57 -112 -111 -194 -174 -5 -5 -34 -21 -62 -37 -61 -34 -85 -78
-54 -95 14 -7 30 -2 67 22 47 29 202 154 234 187 139 147 244 306 271 413 l13
49 50 -5 c28 -3 87 -8 131 -12 86 -7 135 -25 135 -50 0 -15 -46 -81 -80 -114
-8 -8 -37 -42 -63 -75 -26 -33 -55 -69 -65 -80 -10 -11 -31 -40 -47 -65 -17
-25 -33 -47 -36 -50 -3 -3 -8 -12 -12 -20 -4 -8 -18 -33 -32 -55 -92 -148
-131 -330 -83 -390 87 -111 280 -55 648 190 91 60 170 113 175 117 18 15 111
81 199 142 87 59 100 77 69 95 -17 9 -106 -47 -403 -256 -220 -154 -432 -273
-485 -273 -29 0 -37 37 -21 100 21 82 66 173 161 323 44 71 93 150 109 175 53
87 96 181 102 225 6 39 3 46 -20 65 -24 19 -82 36 -161 47 -39 6 -233 25 -251
25 -10 0 -14 13 -14 41 0 134 -87 218 -182 175z m101 -80 c13 -15 28 -116 18
-116 -4 0 -22 14 -42 31 -33 30 -47 74 -28 92 11 12 40 8 52 -7z"/>
</g>
</svg>
